<svg width="21" height="14" viewBox="0 0 21 14" fill="none" xmlns="http://www.w3.org/2000/svg">
<path fill-rule="evenodd" clip-rule="evenodd" d="M0 0.5C0 0.367392 0.0614583 0.240215 0.170854 0.146447C0.280251 0.0526785 0.428624 0 0.583333 0H20.4167C20.5714 0 20.7197 0.0526785 20.8291 0.146447C20.9385 0.240215 21 0.367392 21 0.5C21 0.632608 20.9385 0.759785 20.8291 0.853553C20.7197 0.947321 20.5714 1 20.4167 1H0.583333C0.428624 1 0.280251 0.947321 0.170854 0.853553C0.0614583 0.759785 0 0.632608 0 0.5ZM0 7C0 6.86739 0.0614583 6.74021 0.170854 6.64645C0.280251 6.55268 0.428624 6.5 0.583333 6.5H20.4167C20.5714 6.5 20.7197 6.55268 20.8291 6.64645C20.9385 6.74021 21 6.86739 21 7C21 7.13261 20.9385 7.25979 20.8291 7.35355C20.7197 7.44732 20.5714 7.5 20.4167 7.5H0.583333C0.428624 7.5 0.280251 7.44732 0.170854 7.35355C0.0614583 7.25979 0 7.13261 0 7ZM0 13.5C0 13.3674 0.0614583 13.2402 0.170854 13.1464C0.280251 13.0527 0.428624 13 0.583333 13H20.4167C20.5714 13 20.7197 13.0527 20.8291 13.1464C20.9385 13.2402 21 13.3674 21 13.5C21 13.6326 20.9385 13.7598 20.8291 13.8536C20.7197 13.9473 20.5714 14 20.4167 14H0.583333C0.428624 14 0.280251 13.9473 0.170854 13.8536C0.0614583 13.7598 0 13.6326 0 13.5Z" fill="white"/>
</svg>
