<svg width="604" height="141" viewBox="0 0 604 141" fill="none" xmlns="http://www.w3.org/2000/svg">
<g clip-path="url(#clip0_152_294)">
<path d="M71.8452 140.378C65.27 140.043 58.6708 139.852 52.1197 139.278C46.4597 138.776 40.8239 139.278 35.2603 139.278C31.503 139.278 27.7699 139.278 24.0127 139.278C16.7872 139.494 9.56175 139.757 2.33629 140.02C2.02708 140.086 1.70648 140.078 1.40084 139.997C1.0952 139.916 0.81324 139.765 0.578136 139.555C0.343032 139.345 0.161493 139.082 0.0484382 138.789C-0.0646166 138.496 -0.10596 138.18 -0.0721949 137.868C5.96792e-05 133.898 5.97164e-05 133.755 3.92589 132.775C7.03284 131.986 10.188 131.436 13.2949 130.695C14.8122 130.336 16.2573 129.762 17.7506 129.356C18.4879 129.181 19.1506 128.78 19.6439 128.208C20.1371 127.637 20.4355 126.925 20.4963 126.175C21.1408 122.512 21.583 118.816 21.8209 115.105C22.11 102.528 22.2545 89.9272 22.3267 77.3264C22.3267 63.9843 22.3267 50.6184 22.3267 37.2763C22.3267 35.6504 22.0859 34.0484 22.0136 32.4942C22.0136 31.753 22.2063 30.9879 22.1822 30.2467C22.1822 25.4646 22.11 20.6107 21.9654 15.6852C21.9577 14.6646 21.6413 13.6699 21.0573 12.83C20.4732 11.9901 19.6484 11.3438 18.6899 10.9748C16.6415 10.0221 14.5241 9.22286 12.3556 8.58379C9.26402 8.11964 6.27963 7.11585 3.54053 5.61889C2.94732 5.06515 2.54099 4.34293 2.37715 3.55109C2.21332 2.75926 2.29999 1.9365 2.62531 1.19546C2.88396 0.937994 3.20889 0.756029 3.56462 0.669425C6.49834 0.0999977 9.48938 -0.124712 12.476 -6.73942e-05C17.3089 -0.0479195 22.1388 0.255759 26.9269 0.90853C29.8653 1.09981 32.8277 1.14763 35.7901 1.24328C38.3191 1.24328 40.8721 1.48238 43.401 1.43456C47.6881 1.43456 51.9511 1.19546 56.2141 0.93244C64.3293 0.417195 72.468 0.377275 80.588 0.812888C87.1144 1.16463 93.579 2.25565 99.8559 4.06471C107.677 6.27475 115.024 9.88915 121.532 14.7288C127.778 19.6555 133.164 25.5686 137.476 32.2312C142.499 39.8427 145.87 48.4091 147.375 57.385C150.823 75.9908 147.027 95.2023 136.754 111.136C131.49 119.174 124.478 125.94 116.234 130.934C112.107 133.141 107.755 134.904 103.252 136.194C94.5092 138.974 85.3578 140.276 76.1804 140.043H71.8693L71.8452 140.378ZM125.506 73.9311C125.506 70.6553 125.506 67.3796 125.121 64.1278C124.646 58.8517 123.572 53.6459 121.918 48.6099C119.121 39.9033 114.081 32.0732 107.298 25.895C101.731 20.7184 95.1809 16.6948 88.0302 14.0593C81.2145 11.5524 74.0969 9.94459 66.8596 9.27719C59.6407 8.41214 52.3311 8.64596 45.1832 9.97059C43.6418 10.3053 41.8354 10.6879 41.4983 12.7681C41.4382 13.2919 41.4141 13.8192 41.426 14.3462C41.426 28.3338 41.6187 42.3454 41.6909 56.333C41.6909 76.5851 41.3778 96.9808 42.9674 117.113C43.0779 118.811 43.5518 120.465 44.3575 121.966C45.1633 123.467 46.2823 124.779 47.6399 125.817C52.6924 129.73 58.887 131.911 65.2941 132.033C71.9279 132.389 78.5728 131.579 84.9232 129.642C89.796 128.317 94.4517 126.304 98.748 123.665C103.062 121.009 106.998 117.792 110.453 114.101C114.13 109.847 117.261 105.156 119.774 100.137C121.197 97.5257 122.328 94.7675 123.146 91.9117C124.763 86.0547 125.558 80.0039 125.506 73.9311Z" fill="#F0F0F0" fill-opacity="0.05"/>
<path d="M493.908 105.206C491.644 108.003 489.428 110.658 487.333 113.431C484.234 117.592 481.167 121.792 478.133 126.032C477.29 127.204 477.338 127.801 478.663 128.423C480.676 129.343 482.743 130.141 484.852 130.814C485.888 131.173 486.972 131.292 488.056 131.555C488.494 131.592 488.902 131.792 489.198 132.116C489.493 132.44 489.653 132.864 489.645 133.301C489.645 134.162 489.838 134.998 489.838 135.859C489.838 137.318 489.573 137.605 488.152 137.605C480.926 137.605 473.701 137.605 466.476 137.605C461.153 137.605 455.806 137.82 450.459 137.915C449.806 137.917 449.178 137.669 448.703 137.225C448.228 136.78 447.943 136.171 447.906 135.524C447.906 134.855 447.906 134.185 447.906 133.325C446.389 133.755 444.992 134.09 443.619 134.52L430.324 138.776L429.794 138.968C427.386 139.613 426.856 139.278 426.711 136.816C426.495 133.253 426.422 129.642 426.278 126.128C426.278 125.745 426.278 125.339 426.278 124.693C424.496 126.056 422.93 127.299 421.292 128.495C415.922 132.671 409.956 136.031 403.59 138.465C400.796 139.446 397.822 139.813 394.871 139.541C392.088 139.278 389.36 138.601 386.779 137.533C385.02 136.752 383.395 135.703 381.962 134.425C377.13 130.226 373.927 124.483 372.906 118.189C371.463 110.409 371.098 102.469 371.822 94.5897C371.967 92.7725 372.015 90.9314 372.015 89.0903C372.015 80.6499 371.846 72.353 371.774 63.817C371.828 63.3039 371.677 62.7903 371.352 62.3875C371.027 61.9847 370.556 61.7251 370.04 61.665C367.101 60.9955 364.139 60.3739 361.177 59.7283C360.611 59.6665 360.063 59.4959 359.563 59.2262C359.079 58.8628 358.732 58.3494 358.575 57.7676C358.515 56.6047 358.515 55.4396 358.575 54.2767C358.575 53.6311 358.768 53.3681 359.418 53.3681H363.681H381.095L385.623 53.4876C386.803 53.4876 387.333 53.9658 387.429 55.1614C387.525 56.3569 387.646 57.5524 387.622 58.7479C387.622 62.8127 387.309 66.8536 387.26 70.9184C387.116 81.152 387.02 91.3857 386.971 101.619C386.971 105.254 386.971 108.912 387.309 112.546C387.356 115.694 388.364 118.754 390.199 121.322C391.293 122.68 392.755 123.701 394.414 124.263C396.46 125.026 398.597 125.524 400.772 125.745C408.067 126.061 415.256 123.921 421.172 119.672C422.727 118.595 424.186 117.387 425.531 116.061C426.016 115.556 426.298 114.893 426.326 114.196C426.543 106.593 426.687 98.9893 426.808 91.4096C426.808 86.4841 427.049 81.5585 426.952 76.633C426.952 72.5682 426.447 68.5273 426.158 64.4865C426.213 63.8742 426.028 63.2644 425.643 62.7835C425.257 62.3026 424.7 61.9877 424.086 61.9041C420.931 61.2585 417.8 60.613 414.645 60.0391C412.959 59.7522 411.273 59.6087 409.587 59.3696C408.551 59.2501 407.371 57.3133 407.444 55.9982C407.588 54.181 408.046 53.6072 409.852 53.4876C412.887 53.3681 415.921 53.4876 418.956 53.4876L438.73 53.2485H440.657C441.813 53.2485 442.246 53.7985 442.294 54.9701C442.704 62.2628 442.054 69.5316 441.933 76.8003C441.933 80.1956 441.933 83.5909 441.933 86.9623C441.933 96.5265 441.877 106.154 441.764 115.846C441.764 118.237 441.909 120.365 442.005 122.613C442.005 124.215 442.559 124.765 444.197 124.86C445.835 124.956 448.002 124.86 449.881 125.123C451.76 125.386 453.349 125.41 455.083 125.649C456.36 125.817 456.818 126.391 456.793 127.706C456.793 131.651 457.323 130.814 453.518 131.866L450.483 132.655V132.99C452.338 132.56 454.192 132.01 456.071 131.699C459.257 131.187 462.122 129.474 464.067 126.917C472.063 117.161 480.156 107.597 488.345 97.7459C487.911 97.196 487.502 96.6221 487.068 96.0961L460.864 63.7213C459.487 62.3686 457.685 61.5248 455.758 61.3303C453.855 60.876 451.928 60.4695 450.002 60.0869C449.598 60.0584 449.219 59.8849 448.935 59.5988C448.651 59.3127 448.483 58.9336 448.46 58.5327C448.272 57.2344 448.191 55.9229 448.219 54.6114C448.219 53.6072 449.255 53.4159 450.098 53.4159C453.831 53.4159 457.54 53.4159 461.249 53.4159C468.715 53.4159 476.182 53.4159 483.648 53.4159C485.286 53.4159 486.9 53.4159 488.465 53.4159C488.875 53.3474 489.295 53.3738 489.693 53.4932C490.091 53.6125 490.456 53.8216 490.759 54.104C491.062 54.3863 491.295 54.7345 491.44 55.1211C491.586 55.5078 491.639 55.9225 491.596 56.333C491.596 58.4371 491.211 59.6326 488.899 59.7761C487.243 59.9008 485.595 60.1083 483.961 60.3978C482.932 60.5862 481.923 60.8745 480.951 61.2585C479.674 61.7607 479.578 62.0954 480.348 63.267C482.01 65.7776 483.624 68.336 485.43 70.751C489.019 75.5331 492.656 80.3152 496.509 85.0973C496.776 84.8008 497.025 84.4894 497.256 84.1648C500.098 80.0043 503.012 75.8678 505.758 71.6357C506.75 70.016 507.558 68.2918 508.166 66.4949C508.467 65.9178 508.627 65.2788 508.634 64.6292C508.641 63.9796 508.495 63.3374 508.207 62.754C507.919 62.1706 507.497 61.6623 506.976 61.2697C506.454 60.8772 505.848 60.6113 505.204 60.4934C503.28 59.9321 501.326 59.4771 499.351 59.1305C497.979 58.8914 497.593 57.9111 497.28 56.8829C497.065 56.3966 496.994 55.8595 497.075 55.3344C497.156 54.8094 497.386 54.3181 497.738 53.918C498.153 53.6093 498.665 53.4568 499.183 53.4876C505.421 53.4876 511.683 53.4876 517.945 53.4876C523.051 53.4876 528.157 53.4876 533.287 53.4876C534.031 53.4426 534.768 53.6567 535.371 54.0932C535.973 54.5297 536.403 55.1612 536.587 55.8787C536.753 56.438 536.708 57.0383 536.459 57.5667C536.211 58.0951 535.776 58.5152 535.238 58.7479C533.359 59.2979 531.481 59.8 529.578 60.2543C524.204 61.287 519.403 64.2493 516.09 68.5751L500.267 89.9272L502.506 92.9877C509.491 102.385 516.403 111.877 523.533 121.178C525.872 124.592 529.079 127.331 532.829 129.116C534.601 129.862 536.409 130.516 538.248 131.077C539.501 131.46 540.079 132.081 539.91 133.468C539.742 134.855 540.127 136.074 539.188 137.246C539.015 137.504 538.778 137.713 538.499 137.851C538.22 137.99 537.909 138.053 537.598 138.035C533.118 137.915 528.663 137.772 524.183 137.748C516.114 137.748 508.046 137.748 499.954 137.748C498.147 137.748 497.954 137.557 497.979 135.716C497.979 132.201 497.979 132.225 501.399 131.34C503.398 130.814 505.373 130.168 507.348 129.547C507.641 129.429 507.924 129.285 508.191 129.116C510.406 127.993 510.599 127.204 509.226 125.243C504.698 119.194 500.098 113.288 495.522 107.143C495.04 106.545 494.51 105.947 493.908 105.206Z" fill="#F0F0F0" fill-opacity="0.05"/>
<path d="M342.438 138.489C337.188 138.37 331.913 138.178 326.639 138.131C314.259 138.131 301.856 137.915 289.476 137.987C281.432 137.987 273.411 138.394 265.391 138.633L250.049 139.039C248.556 139.039 248.435 138.896 248.435 137.437C248.412 137.103 248.412 136.767 248.435 136.433C248.387 135.679 248.633 134.936 249.122 134.358C249.61 133.779 250.305 133.409 251.061 133.325C255.856 131.948 260.764 130.996 265.728 130.479C266.672 130.367 267.606 130.184 268.522 129.929C270.136 129.523 270.931 128.614 270.931 126.677C270.929 123.226 271.122 119.778 271.509 116.348C272.665 109.797 271.87 103.245 272.038 96.7176C272.207 90.1901 272.183 83.543 272.183 76.9676C272.183 57.1219 272.119 37.2603 271.99 17.3827C272.017 16.4475 271.87 15.5154 271.557 14.633C271.409 14.327 271.197 14.0557 270.936 13.8372C270.674 13.6187 270.368 13.458 270.039 13.3658C264.765 12.0746 259.442 10.9747 254.119 9.68355C253.673 9.61893 253.231 9.53114 252.795 9.42054C252.378 9.36249 251.996 9.15579 251.721 8.83901C251.447 8.52223 251.297 8.11701 251.301 7.69898C251.362 6.83925 251.362 5.97638 251.301 5.11665C251.157 4.04068 251.711 3.6342 252.602 3.56247C253.509 3.51466 254.417 3.51466 255.324 3.56247L274.977 4.11241C278.662 4.11241 282.347 4.11241 286.008 4.35152C291.933 4.85364 297.785 3.72984 303.686 3.80158C306.721 3.80158 309.755 3.80158 312.79 3.96895C314.572 3.96895 314.982 4.47107 314.885 6.36C314.857 7.16803 314.735 7.9702 314.524 8.75104C314.067 10.7834 313.898 10.903 311.803 11.1421C306.986 11.3573 302.169 11.5725 297.496 11.8355C296.147 11.8355 294.799 12.1702 293.45 12.3137C292.101 12.4572 291.86 13.5092 291.523 14.4656C291.326 15.1164 291.236 15.7948 291.258 16.4741C291.258 31.7131 291.258 46.944 291.258 62.167C291.258 72.4724 291.258 82.7778 291.403 93.1072C291.403 98.9891 291.403 104.895 291.403 110.777C291.403 116.659 291.258 121.991 291.21 127.514C291.21 130.838 291.21 130.886 294.461 130.91C301.277 130.91 308.093 131.101 314.934 131.029C320.69 131.029 326.422 130.599 332.178 130.36C336.161 130.109 339.97 128.648 343.089 126.175C348.978 121.792 353.7 116.046 356.841 109.438C357.901 107.334 358.672 105.086 359.611 102.91C359.769 102.537 360.027 102.215 360.358 101.978C361.089 101.583 361.897 101.346 362.727 101.285C363.558 101.223 364.392 101.337 365.175 101.619C366.018 101.787 366.066 102.791 365.897 103.628C365.175 107.238 364.38 110.801 363.802 114.459C362.622 121.632 361.586 128.805 360.502 135.979C359.948 139.565 360.069 139.422 356.865 139.254C352.169 139.015 347.448 138.944 342.752 138.8L342.438 138.489Z" fill="#F0F0F0" fill-opacity="0.05"/>
<path d="M573.22 83.3039H545.715C544.992 83.3039 544.559 83.4952 544.438 84.2125C544.318 84.9298 544.053 86.197 544.005 87.2013C544.005 89.5923 543.788 92.1746 543.884 94.6374C544.018 96.1272 544.259 97.6056 544.607 99.0609C545.827 106.013 548.802 112.544 553.253 118.046C554.408 119.397 555.727 120.602 557.179 121.632C562.657 125.67 569.365 127.718 576.182 127.435C582.999 127.152 589.511 124.555 594.631 120.078C596.462 118.62 598.172 117.018 599.906 115.463C600.301 115.149 600.758 114.921 601.247 114.793C601.737 114.665 602.248 114.641 602.748 114.722C602.88 114.759 603.001 114.828 603.098 114.925C603.195 115.021 603.265 115.141 603.302 115.272C603.591 117.233 603.831 119.193 604 121.178C604.032 121.659 603.886 122.135 603.591 122.517C600.671 126.269 597.186 129.552 593.258 132.249C588.668 135.597 583.537 138.144 578.085 139.78C575.623 140.38 573.104 140.717 570.57 140.785C566.197 141.289 561.77 141.071 557.468 140.139C554.526 139.326 551.658 138.271 548.894 136.983C543.587 134.426 539.089 130.472 535.888 125.554C532.044 120.078 529.53 113.792 528.542 107.19C526.853 96.4717 528.282 85.4971 532.661 75.5569C534.328 71.1894 536.633 67.0887 539.501 63.3865C541.038 61.5772 542.748 59.9197 544.607 58.437C550.491 53.4953 557.747 50.4436 565.416 49.6858C570.631 49.1669 575.898 49.6541 580.927 51.1204C584.487 52.2132 587.771 54.0473 590.561 56.5002C592.681 58.3703 594.669 60.3835 596.51 62.5257C598.638 65.4266 600.266 68.6588 601.327 72.0899C602.378 74.8778 602.877 77.8413 602.796 80.8172C602.796 82.6344 602.41 82.993 600.58 82.993H573.22V83.3039ZM546.028 76.6807H547.593C556.312 76.2503 565.007 75.8438 573.701 75.3656C576.736 75.1982 579.747 74.9113 582.781 74.6722C583.263 74.6619 583.734 74.5344 584.154 74.301C584.574 74.0675 584.93 73.7352 585.19 73.3332C585.568 72.7284 585.805 72.0476 585.884 71.3402C585.963 70.6329 585.882 69.9169 585.647 69.2445C585.212 66.6307 584.039 64.1927 582.266 62.2124C580.493 60.2322 578.192 58.7907 575.628 58.0544C572.823 57.2477 569.885 56.9958 566.982 57.3132C561.896 57.5695 557.084 59.6811 553.47 63.243C550.808 65.824 548.702 68.9152 547.28 72.329C546.787 73.7549 546.377 75.2079 546.052 76.6807H546.028Z" fill="#F0F0F0" fill-opacity="0.05"/>
<path d="M192.679 82.9931C183.503 83.1365 174.326 83.3039 165.15 83.4234C164.235 83.4234 163.777 83.6865 163.705 84.6429C163.584 86.0058 163.392 87.3687 163.295 88.7555C162.764 97.9155 165.13 107.011 170.063 114.77C172.994 119.537 177.457 123.184 182.732 125.123C186.402 126.573 190.297 127.382 194.244 127.514C200.045 127.784 205.774 126.154 210.55 122.876C213.32 120.987 215.873 118.811 218.522 116.755C219.269 116.181 220.015 115.583 220.786 115.057C221.557 114.531 222.544 114.698 222.737 115.798C223.05 117.735 223.243 119.672 223.387 121.608C223.326 122.056 223.114 122.469 222.785 122.78C217.625 128.972 211.175 133.981 203.878 137.461C200.32 139.255 196.441 140.336 192.462 140.641C186.443 141.405 180.334 141.048 174.447 139.589C168.783 137.952 163.65 134.869 159.562 130.647C155.622 126.843 152.55 122.245 150.554 117.161C148.768 112.376 147.642 107.373 147.207 102.289C146.679 94.0464 147.936 85.7875 150.892 78.0675C152.607 72.7193 155.346 67.7505 158.96 63.4343C163.602 58.1029 169.502 53.9956 176.133 51.4791C181.086 49.7677 186.344 49.1 191.571 49.5184C195.177 49.5887 198.735 50.3519 202.048 51.766C206.036 53.4339 209.655 55.8656 212.696 58.922C215.738 61.9785 218.143 65.5998 219.774 69.5793C221.395 73.1392 222.217 77.0063 222.183 80.9129C222.183 82.4192 221.749 82.8735 220.208 82.8735L192.679 82.9931ZM165.704 76.7524H166.836C174.061 76.3699 181.287 76.059 188.512 75.6286C193.329 75.3417 198.146 74.9113 202.77 74.5288C203.441 74.4856 204.069 74.184 204.519 73.6881C204.968 73.1923 205.205 72.5415 205.179 71.8747C205.163 69.7966 204.686 67.7476 203.782 65.8732C202.622 62.9165 200.376 60.5067 197.496 59.1304C193.766 57.3078 189.553 56.6971 185.453 57.385C182.488 57.8007 179.623 58.7486 177 60.1825C173.145 62.4968 169.992 65.8011 167.871 69.7467C166.524 71.8442 165.775 74.2655 165.704 76.7524Z" fill="#F0F0F0" fill-opacity="0.05"/>
</g>
<defs>
<clipPath id="clip0_152_294">
<rect width="604" height="141" fill="white"/>
</clipPath>
</defs>
</svg>
