<svg width="1319" height="310" viewBox="0 0 1319 310" fill="none" xmlns="http://www.w3.org/2000/svg">
<g clip-path="url(#clip0_8_434)">
<path d="M156.894 308.633C142.535 307.897 128.124 307.477 113.818 306.215C101.458 305.111 89.1502 306.215 77.0005 306.215C68.7956 306.215 60.6432 306.215 52.4382 306.215C36.6595 306.688 20.8807 307.266 5.10192 307.845C4.42667 307.99 3.72655 307.973 3.0591 307.795C2.39165 307.618 1.77592 307.284 1.2625 306.822C0.74909 306.361 0.35265 305.784 0.105764 305.139C-0.141122 304.494 -0.231407 303.8 -0.157671 303.113C0.000116393 294.387 0.000116482 294.072 8.57325 291.916C15.3581 290.181 22.2482 288.972 29.0331 287.343C32.3466 286.554 35.5023 285.293 38.7633 284.399C40.3734 284.016 41.8207 283.133 42.8978 281.877C43.9749 280.621 44.6265 279.056 44.7592 277.407C46.1667 269.353 47.1324 261.227 47.652 253.068C48.2832 225.416 48.5987 197.712 48.7565 170.008C48.7565 140.675 48.7565 111.289 48.7565 81.9553C48.7565 78.3806 48.2306 74.8584 48.0728 71.4414C48.0728 69.8118 48.4935 68.1296 48.4409 66.4999C48.4409 55.9861 48.2831 45.3146 47.9676 34.4854C47.9507 32.2415 47.2598 30.0545 45.9843 28.2079C44.7089 26.3613 42.9078 24.9403 40.8145 24.1292C36.3412 22.0346 31.7174 20.2774 26.9818 18.8723C20.2305 17.8519 13.7133 15.645 7.73171 12.3538C6.43627 11.1363 5.54893 9.54845 5.19116 7.80754C4.83338 6.06662 5.02265 4.25774 5.73307 2.62848C6.2979 2.06243 7.00747 1.66236 7.78431 1.47196C14.1909 0.220025 20.7227 -0.274017 27.2448 2.41175e-05C37.7987 -0.105183 48.3461 0.562479 58.8023 1.99765C65.219 2.4182 71.6883 2.52334 78.1576 2.73362C83.6802 2.73362 89.2554 3.25931 94.7779 3.15417C104.14 3.15417 113.449 2.62848 122.759 2.05022C140.481 0.91741 158.254 0.829643 175.986 1.78737C190.238 2.56071 204.355 4.9594 218.063 8.93677C235.142 13.7957 251.186 21.7423 265.399 32.3826C279.038 43.2143 290.801 56.2148 300.217 70.8632C311.186 87.5976 318.548 106.432 321.834 126.166C329.364 167.072 321.074 209.31 298.64 244.341C287.144 262.015 271.832 276.889 253.828 287.868C244.817 292.721 235.313 296.598 225.479 299.434C206.387 305.547 186.402 308.408 166.361 307.897H156.946L156.894 308.633ZM274.077 162.544C274.077 155.342 274.077 148.14 273.236 140.99C272.2 129.39 269.853 117.945 266.241 106.873C260.132 87.7309 249.127 70.5157 234.315 56.9324C222.158 45.5512 207.854 36.7051 192.238 30.9107C177.354 25.399 161.811 21.8642 146.006 20.3968C130.242 18.4949 114.279 19.009 98.67 21.9213C95.3039 22.6573 91.3592 23.4984 90.6228 28.0719C90.4917 29.2235 90.439 30.3827 90.4651 31.5415C90.4651 62.2944 90.8858 93.0999 91.0436 123.853C91.0436 168.379 90.3599 213.22 93.8312 257.483C94.0724 261.215 95.1073 264.852 96.8669 268.152C98.6264 271.451 101.07 274.338 104.035 276.619C115.068 285.222 128.596 290.018 142.588 290.287C157.074 291.068 171.585 289.288 185.453 285.03C196.094 282.116 206.261 277.69 215.643 271.887C225.063 266.048 233.66 258.976 241.205 250.86C249.235 241.507 256.072 231.195 261.56 220.159C264.667 214.418 267.137 208.354 268.923 202.076C272.455 189.199 274.189 175.895 274.077 162.544Z" fill="#7E7E7E" fill-opacity="0.05"/>
<path d="M1078.58 231.304C1073.64 237.455 1068.8 243.29 1064.23 249.388C1057.46 258.535 1050.76 267.769 1044.13 277.092C1042.29 279.668 1042.4 280.982 1045.29 282.349C1049.69 284.371 1054.2 286.126 1058.81 287.606C1061.07 288.394 1063.44 288.657 1065.8 289.235C1066.76 289.315 1067.65 289.756 1068.3 290.469C1068.94 291.181 1069.29 292.112 1069.27 293.073C1069.27 294.965 1069.7 296.805 1069.7 298.698C1069.7 301.904 1069.12 302.535 1066.01 302.535C1050.23 302.535 1034.46 302.535 1018.68 302.535C1007.05 302.535 995.377 303.008 983.701 303.219C982.276 303.221 980.903 302.677 979.866 301.7C978.829 300.722 978.207 299.384 978.126 297.962C978.126 296.49 978.126 295.018 978.126 293.125C974.812 294.072 971.762 294.808 968.764 295.754L939.731 305.111L938.574 305.532C933.314 306.951 932.157 306.215 931.842 300.8C931.368 292.968 931.21 285.03 930.895 277.302C930.895 276.461 930.895 275.567 930.895 274.148C927.003 277.144 923.584 279.878 920.007 282.506C908.279 291.687 895.251 299.075 881.35 304.428C875.249 306.582 868.753 307.39 862.31 306.793C856.231 306.214 850.274 304.726 844.638 302.377C840.797 300.66 837.248 298.354 834.118 295.544C823.566 286.312 816.571 273.687 814.342 259.849C811.191 242.743 810.394 225.286 811.976 207.963C812.291 203.968 812.396 199.92 812.396 195.872C812.396 177.316 812.028 159.074 811.87 140.307C811.989 139.179 811.658 138.05 810.949 137.164C810.24 136.279 809.21 135.708 808.083 135.576C801.667 134.104 795.197 132.737 788.728 131.318C787.493 131.182 786.296 130.807 785.204 130.214C784.148 129.415 783.389 128.286 783.048 127.007C782.916 124.45 782.916 121.889 783.048 119.332C783.048 117.913 783.469 117.334 784.889 117.334H794.198H832.225L842.113 117.597C844.69 117.597 845.847 118.648 846.058 121.277C846.268 123.905 846.531 126.534 846.478 129.162C846.478 138.099 845.795 146.983 845.689 155.92C845.374 178.42 845.164 200.919 845.058 223.419C845.058 231.409 845.058 239.452 845.795 247.443C845.898 254.364 848.099 261.091 852.106 266.736C854.496 269.723 857.689 271.966 861.31 273.202C865.78 274.88 870.446 275.975 875.196 276.461C891.127 277.156 906.825 272.45 919.745 263.108C923.141 260.741 926.326 258.085 929.264 255.17C930.322 254.06 930.939 252.602 931 251.07C931.473 234.353 931.789 217.636 932.052 200.972C932.052 190.142 932.578 179.313 932.368 168.484C932.368 159.547 931.263 150.663 930.632 141.779C930.753 140.433 930.35 139.092 929.508 138.035C928.665 136.978 927.448 136.285 926.109 136.101C919.219 134.682 912.381 133.263 905.491 132.001C901.809 131.37 898.128 131.055 894.446 130.529C892.184 130.266 889.607 126.008 889.765 123.117C890.08 119.122 891.08 117.86 895.024 117.597C901.652 117.334 908.279 117.597 914.906 117.597L958.087 117.071H962.295C964.819 117.071 965.766 118.28 965.871 120.856C966.765 136.89 965.345 152.871 965.082 168.852C965.082 176.317 965.082 183.782 965.082 191.194C965.082 212.221 964.959 233.389 964.714 254.697C964.714 259.954 965.03 264.633 965.24 269.574C965.24 273.096 966.45 274.306 970.026 274.516C973.603 274.726 978.336 274.516 982.439 275.094C986.541 275.672 990.013 275.725 993.8 276.251C996.587 276.619 997.586 277.88 997.534 280.772C997.534 289.445 998.691 287.606 990.381 289.919L983.754 291.653V292.389C987.804 291.443 991.854 290.234 995.956 289.551C1002.91 288.426 1009.17 284.66 1013.42 279.037C1030.88 257.589 1048.55 236.561 1066.43 214.903C1065.49 213.693 1064.59 212.432 1063.65 211.275L1006.42 140.097C1003.42 137.123 999.481 135.267 995.272 134.84C991.117 133.841 986.909 132.947 982.702 132.106C981.821 132.044 980.993 131.662 980.373 131.033C979.754 130.404 979.385 129.571 979.336 128.689C978.924 125.835 978.748 122.951 978.81 120.068C978.81 117.86 981.071 117.439 982.912 117.439C991.065 117.439 999.164 117.439 1007.26 117.439C1023.57 117.439 1039.87 117.439 1056.18 117.439C1059.75 117.439 1063.28 117.439 1066.7 117.439C1067.59 117.289 1068.51 117.347 1069.38 117.609C1070.25 117.872 1071.04 118.331 1071.71 118.952C1072.37 119.573 1072.88 120.338 1073.2 121.188C1073.51 122.039 1073.63 122.95 1073.53 123.853C1073.53 128.479 1072.69 131.107 1067.64 131.423C1064.03 131.697 1060.43 132.153 1056.86 132.79C1054.61 133.204 1052.41 133.838 1050.29 134.682C1047.5 135.786 1047.29 136.522 1048.97 139.098C1052.6 144.618 1056.13 150.243 1060.07 155.552C1067.91 166.066 1075.85 176.58 1084.26 187.093C1084.85 186.442 1085.39 185.757 1085.89 185.043C1092.1 175.896 1098.47 166.802 1104.46 157.497C1106.63 153.936 1108.39 150.145 1109.72 146.195C1110.38 144.926 1110.73 143.521 1110.74 142.093C1110.76 140.664 1110.44 139.253 1109.81 137.97C1109.18 136.687 1108.26 135.57 1107.12 134.707C1105.98 133.844 1104.66 133.259 1103.25 133C1099.05 131.766 1094.78 130.766 1090.47 130.003C1087.47 129.478 1086.63 127.322 1085.95 125.062C1085.48 123.993 1085.32 122.812 1085.5 121.657C1085.68 120.503 1086.18 119.423 1086.95 118.543C1087.85 117.865 1088.97 117.529 1090.1 117.597C1103.72 117.597 1117.4 117.597 1131.07 117.597C1142.23 117.597 1153.38 117.597 1164.58 117.597C1166.2 117.498 1167.81 117.969 1169.13 118.929C1170.44 119.888 1171.38 121.276 1171.78 122.854C1172.15 124.084 1172.05 125.403 1171.51 126.565C1170.96 127.727 1170.01 128.651 1168.84 129.162C1164.74 130.371 1160.63 131.475 1156.48 132.474C1144.74 134.745 1134.26 141.258 1127.02 150.768L1092.47 197.712L1097.36 204.441C1112.61 225.101 1127.71 245.971 1143.28 266.42C1148.39 273.926 1155.39 279.947 1163.58 283.873C1167.45 285.512 1171.4 286.95 1175.41 288.184C1178.15 289.025 1179.41 290.392 1179.04 293.441C1178.67 296.49 1179.52 299.171 1177.46 301.747C1177.09 302.314 1176.57 302.773 1175.96 303.077C1175.35 303.382 1174.67 303.521 1173.99 303.481C1164.21 303.219 1154.48 302.903 1144.7 302.851C1127.08 302.851 1109.46 302.851 1091.79 302.851C1087.84 302.851 1087.42 302.43 1087.47 298.382C1087.47 290.655 1087.47 290.707 1094.94 288.762C1099.31 287.606 1103.62 286.186 1107.93 284.819C1108.57 284.561 1109.19 284.245 1109.77 283.873C1114.61 281.402 1115.03 279.668 1112.04 275.357C1102.15 262.057 1092.1 249.072 1082.11 235.562C1081.06 234.248 1079.9 232.934 1078.58 231.304Z" fill="#7E7E7E" fill-opacity="0.05"/>
<path d="M747.809 304.48C736.343 304.217 724.824 303.797 713.306 303.692C686.271 303.692 659.184 303.219 632.15 303.376C614.583 303.376 597.069 304.27 579.554 304.796L546.051 305.689C542.79 305.689 542.527 305.374 542.527 302.167C542.475 301.432 542.475 300.694 542.527 299.959C542.422 298.302 542.959 296.669 544.026 295.396C545.093 294.124 546.609 293.311 548.26 293.125C558.731 290.098 569.45 288.005 580.291 286.87C582.352 286.624 584.392 286.22 586.392 285.661C589.916 284.767 591.651 282.769 591.651 278.511C591.648 270.924 592.069 263.342 592.914 255.801C595.438 241.397 593.703 226.993 594.071 212.642C594.439 198.291 594.386 183.676 594.386 169.22C594.386 125.588 594.246 81.9202 593.966 38.2178C594.024 36.1616 593.703 34.1124 593.019 32.1723C592.696 31.4994 592.234 30.903 591.662 30.4226C591.091 29.9422 590.424 29.5889 589.705 29.3861C578.187 26.5474 566.563 24.1292 554.939 21.2905C553.966 21.1484 553 20.9554 552.047 20.7122C551.136 20.5846 550.303 20.1302 549.703 19.4337C549.103 18.7372 548.777 17.8463 548.786 16.9273C548.918 15.0371 548.918 13.14 548.786 11.2498C548.47 8.88419 549.68 7.99052 551.626 7.83281C553.606 7.72769 555.589 7.72769 557.569 7.83281L600.487 9.0419C608.535 9.0419 616.582 9.0419 624.576 9.56759C637.515 10.6715 650.296 8.20079 663.182 8.3585C669.809 8.3585 676.436 8.3585 683.063 8.72648C686.955 8.72648 687.849 9.83043 687.639 13.9834C687.576 15.7599 687.311 17.5236 686.85 19.2403C685.851 23.7087 685.482 23.9715 680.907 24.4972C670.387 24.9703 659.868 25.4435 649.665 26.0217C646.719 26.0217 643.774 26.7577 640.828 27.0731C637.883 27.3885 637.357 29.7016 636.621 31.8043C636.19 33.2351 635.994 34.7266 636.042 36.2201C636.042 69.7242 636.042 103.211 636.042 136.68C636.042 159.337 636.042 181.994 636.358 204.704C636.358 217.636 636.358 230.621 636.358 243.553C636.358 256.485 636.042 268.208 635.937 280.351C635.937 287.658 635.937 287.763 643.038 287.816C657.922 287.816 672.807 288.236 687.744 288.079C700.314 288.079 712.832 287.132 725.403 286.607C734.101 286.055 742.418 282.843 749.229 277.407C762.09 267.771 772.4 255.138 779.261 240.609C781.575 235.983 783.258 231.041 785.309 226.257C785.654 225.437 786.218 224.728 786.94 224.207C788.537 223.338 790.301 222.819 792.115 222.683C793.928 222.547 795.75 222.798 797.459 223.419C799.3 223.787 799.405 225.995 799.037 227.835C797.459 235.772 795.723 243.605 794.461 251.648C791.884 267.419 789.622 283.19 787.255 298.961C786.046 306.846 786.309 306.53 779.313 306.162C769.057 305.637 758.748 305.479 748.492 305.164L747.809 304.48Z" fill="#7E7E7E" fill-opacity="0.05"/>
<path d="M1251.78 183.151H1191.72C1190.14 183.151 1189.19 183.571 1188.93 185.148C1188.67 186.725 1188.09 189.512 1187.98 191.72C1187.98 196.976 1187.51 202.654 1187.72 208.069C1188.01 211.344 1188.54 214.594 1189.3 217.794C1191.96 233.078 1198.46 247.438 1208.18 259.534C1210.7 262.505 1213.58 265.153 1216.75 267.419C1228.72 276.296 1243.37 280.799 1258.25 280.177C1273.14 279.555 1287.36 273.846 1298.54 264.002C1302.54 260.795 1306.27 257.273 1310.06 253.856C1310.92 253.165 1311.92 252.663 1312.99 252.382C1314.06 252.101 1315.17 252.048 1316.27 252.227C1316.55 252.307 1316.82 252.46 1317.03 252.672C1317.24 252.884 1317.39 253.147 1317.47 253.436C1318.11 257.746 1318.63 262.057 1319 266.42C1319.07 267.477 1318.75 268.524 1318.11 269.364C1311.73 277.613 1304.12 284.83 1295.54 290.76C1285.52 298.121 1274.31 303.721 1262.41 307.319C1257.03 308.638 1251.53 309.379 1246 309.527C1236.45 310.635 1226.78 310.156 1217.38 308.108C1210.96 306.321 1204.7 304 1198.66 301.168C1187.07 295.546 1177.25 286.855 1170.26 276.04C1161.87 264.001 1156.37 250.182 1154.22 235.667C1150.53 212.101 1153.65 187.973 1163.21 166.118C1166.85 156.516 1171.88 147.501 1178.15 139.361C1181.51 135.383 1185.24 131.739 1189.3 128.479C1202.15 117.614 1217.99 110.905 1234.74 109.239C1246.13 108.098 1257.63 109.169 1268.61 112.393C1276.39 114.795 1283.56 118.828 1289.65 124.221C1294.28 128.332 1298.62 132.759 1302.64 137.468C1307.29 143.846 1310.85 150.952 1313.16 158.496C1315.46 164.625 1316.55 171.141 1316.37 177.684C1316.37 181.679 1315.53 182.467 1311.53 182.467H1251.78V183.151ZM1192.4 168.589H1195.82C1214.86 167.643 1233.85 166.749 1252.83 165.698C1259.46 165.33 1266.04 164.699 1272.66 164.173C1273.71 164.151 1274.74 163.87 1275.66 163.357C1276.58 162.844 1277.35 162.113 1277.92 161.229C1278.75 159.9 1279.27 158.403 1279.44 156.848C1279.61 155.293 1279.44 153.718 1278.92 152.24C1277.97 146.493 1275.41 141.133 1271.54 136.78C1267.67 132.426 1262.64 129.256 1257.04 127.638C1250.92 125.864 1244.5 125.31 1238.16 126.008C1227.05 126.572 1216.55 131.214 1208.65 139.045C1202.84 144.72 1198.24 151.516 1195.14 159.022C1194.06 162.157 1193.16 165.351 1192.45 168.589H1192.4Z" fill="#7E7E7E" fill-opacity="0.05"/>
<path d="M420.767 182.467C400.728 182.783 380.689 183.151 360.65 183.414C358.652 183.414 357.652 183.992 357.494 186.095C357.232 189.091 356.811 192.088 356.6 195.137C355.439 215.276 360.607 235.273 371.38 252.332C377.78 262.811 387.526 270.83 399.045 275.094C407.06 278.282 415.565 280.061 424.186 280.351C436.853 280.944 449.363 277.36 459.793 270.153C465.842 266 471.417 261.216 477.203 256.695C478.833 255.433 480.464 254.119 482.147 252.963C483.83 251.806 485.986 252.174 486.407 254.592C487.091 258.85 487.512 263.108 487.827 267.366C487.695 268.35 487.231 269.258 486.512 269.942C475.244 283.557 461.159 294.569 445.224 302.22C437.455 306.165 428.983 308.541 420.294 309.212C407.15 310.891 393.808 310.106 380.952 306.898C368.583 303.3 357.375 296.52 348.448 287.238C339.843 278.876 333.135 268.765 328.777 257.589C324.876 247.069 322.417 236.07 321.466 224.891C320.314 206.769 323.058 188.611 329.513 171.638C333.258 159.88 339.241 148.955 347.133 139.466C357.271 127.744 370.154 118.714 384.634 113.181C395.45 109.419 406.932 107.951 418.348 108.871C426.222 109.025 433.992 110.703 441.227 113.812C449.937 117.479 457.838 122.825 464.48 129.545C471.122 136.265 476.375 144.227 479.938 152.976C483.477 160.803 485.272 169.305 485.197 177.894C485.197 181.206 484.251 182.205 480.884 182.205L420.767 182.467ZM361.86 168.747H364.332C380.111 167.906 395.889 167.222 411.668 166.276C422.187 165.645 432.707 164.699 442.805 163.858C444.27 163.763 445.64 163.1 446.622 162.01C447.605 160.92 448.123 159.489 448.065 158.023C448.029 153.454 446.988 148.949 445.014 144.828C442.481 138.327 437.575 133.029 431.287 130.003C423.141 125.996 413.94 124.654 404.989 126.166C398.513 127.08 392.257 129.164 386.527 132.316C378.11 137.405 371.224 144.669 366.594 153.344C363.65 157.956 362.014 163.279 361.86 168.747Z" fill="#7E7E7E" fill-opacity="0.05"/>
</g>
<defs>
<clipPath id="clip0_8_434">
<rect width="1319" height="310" fill="white"/>
</clipPath>
</defs>
</svg>
