<svg width="170" height="40" viewBox="0 0 170 40" fill="none" xmlns="http://www.w3.org/2000/svg">
<g clip-path="url(#clip0_6_89)">
<path d="M20.2214 39.8236C18.3708 39.7286 16.5134 39.6744 14.6695 39.5116C13.0765 39.3691 11.4903 39.5116 9.92435 39.5116C8.86685 39.5116 7.81613 39.5116 6.75863 39.5116C4.72497 39.5726 2.69132 39.6472 0.657663 39.7218C0.570633 39.7406 0.480398 39.7384 0.394373 39.7155C0.308349 39.6926 0.228989 39.6495 0.162818 39.5899C0.0966461 39.5303 0.0455507 39.4559 0.0137307 39.3727C-0.0180894 39.2895 -0.0297258 39.1999 -0.0202223 39.1114C0.000114216 37.9854 0.000114225 37.9447 1.10507 37.6666C1.97954 37.4427 2.86757 37.2867 3.74204 37.0764C4.16911 36.9747 4.57584 36.8119 4.99613 36.6966C5.20364 36.6471 5.39018 36.5332 5.529 36.3711C5.66783 36.2091 5.75181 36.0072 5.76892 35.7944C5.95032 34.7551 6.07478 33.7067 6.14175 32.6538C6.2231 29.0859 6.26377 25.5112 6.28411 21.9365C6.28411 18.1516 6.28411 14.3598 6.28411 10.5748C6.28411 10.1136 6.21632 9.6591 6.19598 9.21819C6.19598 9.00792 6.25021 8.79086 6.24344 8.58058C6.24344 7.22396 6.2231 5.84699 6.18243 4.44967C6.18026 4.16014 6.0912 3.87795 5.92682 3.63968C5.76243 3.40141 5.53029 3.21805 5.2605 3.1134C4.68396 2.84312 4.08802 2.61638 3.47766 2.43508C2.60752 2.30341 1.76754 2.01865 0.996605 1.59398C0.829641 1.43689 0.715276 1.232 0.669164 1.00737C0.623052 0.782735 0.647447 0.54933 0.739009 0.339103C0.811807 0.266065 0.903261 0.214443 1.00338 0.189875C1.8291 0.0283352 2.67095 -0.0354122 3.51156 -5.20162e-05C4.8718 -0.0136271 6.23121 0.0725228 7.57887 0.257706C8.40589 0.311971 9.23969 0.325537 10.0735 0.35267C10.7853 0.35267 11.5038 0.420501 12.2156 0.406935C13.4222 0.406935 14.6221 0.339103 15.8219 0.264489C18.106 0.11832 20.3967 0.106996 22.6821 0.230574C24.5191 0.330359 26.3386 0.639868 28.1052 1.15308C30.3065 1.78004 32.3743 2.8054 34.2062 4.17834C35.964 5.57599 37.4801 7.25346 38.6938 9.14358C40.1075 11.3029 41.0563 13.7331 41.4799 16.2794C42.4504 21.5576 41.3819 27.0077 38.4904 31.5278C37.0089 33.8083 35.0353 35.7275 32.7148 37.1443C31.5535 37.7704 30.3286 38.2707 29.061 38.6365C26.6004 39.4254 24.0246 39.7945 21.4416 39.7286H20.2282L20.2214 39.8236ZM35.3247 20.9733C35.3247 20.044 35.3247 19.1148 35.2162 18.1922C35.0827 16.6955 34.7803 15.2187 34.3147 13.79C33.5274 11.3201 32.109 9.09875 30.1999 7.34606C28.633 5.87752 26.7894 4.73608 24.7768 3.98842C22.8585 3.27723 20.8552 2.82113 18.8182 2.63179C16.7864 2.38639 14.729 2.45272 12.7172 2.8285C12.2834 2.92347 11.775 3.032 11.6801 3.62213C11.6632 3.77072 11.6564 3.9203 11.6597 4.06981C11.6597 8.03793 11.714 12.0128 11.7343 15.981C11.7343 21.7262 11.6462 27.5122 12.0936 33.2236C12.1247 33.7051 12.2581 34.1744 12.4848 34.6002C12.7116 35.0259 13.0266 35.3984 13.4087 35.6927C14.8308 36.8028 16.5742 37.4217 18.3776 37.4563C20.2447 37.5571 22.115 37.3274 23.9023 36.778C25.2738 36.402 26.5842 35.8309 27.7934 35.0822C29.0075 34.3287 30.1155 33.4162 31.0879 32.3689C32.1228 31.1622 33.004 29.8316 33.7113 28.4076C34.1119 27.6668 34.4301 26.8844 34.6604 26.0742C35.1156 24.4127 35.3391 22.6961 35.3247 20.9733Z" fill="white"/>
<path d="M139.014 29.8457C138.377 30.6393 137.753 31.3922 137.163 32.179C136.291 33.3593 135.428 34.5509 134.574 35.7537C134.337 36.0861 134.35 36.2557 134.723 36.4321C135.29 36.693 135.871 36.9195 136.465 37.1104C136.757 37.2121 137.062 37.246 137.367 37.3206C137.49 37.331 137.605 37.3878 137.688 37.4798C137.771 37.5717 137.816 37.6919 137.814 37.8158C137.814 38.06 137.868 38.2974 137.868 38.5416C137.868 38.9554 137.794 39.0368 137.394 39.0368C135.36 39.0368 133.326 39.0368 131.293 39.0368C129.795 39.0368 128.29 39.0978 126.785 39.1249C126.601 39.1252 126.424 39.0551 126.291 38.9289C126.157 38.8028 126.077 38.6302 126.066 38.4466C126.066 38.2567 126.066 38.0668 126.066 37.8226C125.639 37.9447 125.246 38.0396 124.86 38.1617L121.118 39.3691L120.969 39.4234C120.291 39.6065 120.142 39.5116 120.101 38.8129C120.04 37.8022 120.02 36.778 119.979 35.7809C119.979 35.6723 119.979 35.557 119.979 35.3739C119.477 35.7605 119.037 36.1132 118.576 36.4524C117.064 37.637 115.385 38.5903 113.593 39.281C112.807 39.559 111.97 39.6631 111.139 39.5862C110.356 39.5115 109.588 39.3194 108.862 39.0164C108.367 38.7948 107.909 38.4973 107.506 38.1346C106.146 36.9435 105.244 35.3144 104.957 33.5289C104.551 31.3216 104.448 29.0691 104.652 26.834C104.693 26.3184 104.706 25.7961 104.706 25.2738C104.706 22.8794 104.659 20.5257 104.638 18.1041C104.654 17.9585 104.611 17.8128 104.52 17.6986C104.428 17.5843 104.296 17.5107 104.15 17.4936C103.323 17.3037 102.49 17.1273 101.656 16.9442C101.497 16.9266 101.342 16.8783 101.202 16.8017C101.065 16.6987 100.968 16.553 100.924 16.388C100.907 16.0581 100.907 15.7275 100.924 15.3976C100.924 15.2145 100.978 15.1399 101.161 15.1399H102.361H107.262L108.536 15.1738C108.868 15.1738 109.018 15.3094 109.045 15.6486C109.072 15.9878 109.106 16.3269 109.099 16.6661C109.099 17.8192 109.011 18.9655 108.997 20.1187C108.957 23.0218 108.929 25.925 108.916 28.8282C108.916 29.8592 108.916 30.897 109.011 31.9281C109.024 32.8211 109.308 33.6891 109.824 34.4175C110.132 34.8029 110.544 35.0924 111.011 35.2518C111.587 35.4684 112.188 35.6097 112.8 35.6723C114.853 35.762 116.877 35.1549 118.542 33.9494C118.98 33.644 119.39 33.3013 119.769 32.9252C119.905 32.7819 119.985 32.5938 119.992 32.3961C120.054 30.2391 120.094 28.082 120.128 25.9318C120.128 24.5345 120.196 23.1372 120.169 21.7398C120.169 20.5867 120.026 19.4404 119.945 18.294C119.961 18.1203 119.909 17.9473 119.8 17.8109C119.692 17.6745 119.535 17.5852 119.362 17.5614C118.474 17.3783 117.593 17.1952 116.705 17.0324C116.23 16.951 115.756 16.9103 115.281 16.8424C114.99 16.8085 114.658 16.2591 114.678 15.886C114.719 15.3705 114.847 15.2077 115.356 15.1738C116.21 15.1399 117.064 15.1738 117.918 15.1738L123.484 15.106H124.026C124.351 15.106 124.473 15.262 124.487 15.5943C124.602 17.6632 124.419 19.7253 124.385 21.7873C124.385 22.7505 124.385 23.7137 124.385 24.6701C124.385 27.3834 124.369 30.1147 124.338 32.8641C124.338 33.5424 124.378 34.1461 124.406 34.7838C124.406 35.2382 124.561 35.3942 125.022 35.4214C125.483 35.4485 126.093 35.4214 126.622 35.496C127.151 35.5706 127.598 35.5774 128.086 35.6452C128.446 35.6927 128.575 35.8555 128.568 36.2286C128.568 37.3478 128.717 37.1104 127.646 37.4088L126.792 37.6327V37.7276C127.314 37.6055 127.836 37.4495 128.364 37.3613C129.261 37.2162 130.068 36.7302 130.615 36.0047C132.866 33.2372 135.143 30.524 137.448 27.7293C137.326 27.5733 137.211 27.4105 137.089 27.2613L129.713 18.077C129.326 17.6932 128.819 17.4538 128.276 17.3986C127.741 17.2698 127.198 17.1545 126.656 17.0459C126.543 17.0378 126.436 16.9886 126.356 16.9074C126.276 16.8263 126.229 16.7188 126.222 16.605C126.169 16.2367 126.147 15.8646 126.154 15.4926C126.154 15.2077 126.446 15.1534 126.683 15.1534C127.734 15.1534 128.778 15.1534 129.822 15.1534C131.923 15.1534 134.025 15.1534 136.126 15.1534C136.587 15.1534 137.041 15.1534 137.482 15.1534C137.597 15.134 137.716 15.1415 137.828 15.1754C137.94 15.2092 138.042 15.2685 138.128 15.3486C138.213 15.4287 138.279 15.5275 138.319 15.6372C138.36 15.7469 138.375 15.8645 138.363 15.981C138.363 16.5779 138.255 16.917 137.604 16.9577C137.138 16.9931 136.674 17.052 136.214 17.1341C135.925 17.1876 135.641 17.2693 135.367 17.3783C135.008 17.5207 134.981 17.6157 135.197 17.9481C135.665 18.6603 136.119 19.3861 136.628 20.0712C137.638 21.4278 138.661 22.7844 139.746 24.1411C139.821 24.0569 139.891 23.9686 139.956 23.8765C140.756 22.6963 141.576 21.5228 142.349 20.3222C142.628 19.8627 142.856 19.3736 143.027 18.8638C143.112 18.7001 143.157 18.5188 143.159 18.3345C143.161 18.1502 143.119 17.968 143.038 17.8025C142.957 17.637 142.839 17.4928 142.692 17.3815C142.545 17.2701 142.374 17.1947 142.193 17.1612C141.652 17.002 141.102 16.8729 140.546 16.7746C140.16 16.7068 140.051 16.4287 139.963 16.137C139.902 15.999 139.882 15.8467 139.905 15.6977C139.928 15.5488 139.993 15.4094 140.092 15.2959C140.209 15.2083 140.353 15.165 140.499 15.1738C142.254 15.1738 144.017 15.1738 145.779 15.1738C147.216 15.1738 148.653 15.1738 150.097 15.1738C150.307 15.161 150.514 15.2218 150.684 15.3456C150.853 15.4694 150.974 15.6485 151.026 15.8521C151.073 16.0108 151.06 16.1811 150.99 16.331C150.92 16.4809 150.798 16.6001 150.646 16.6661C150.118 16.8221 149.589 16.9645 149.053 17.0934C147.541 17.3864 146.19 18.2267 145.257 19.4539L140.804 25.5112L141.434 26.3795C143.4 29.0452 145.345 31.7381 147.352 34.3768C148.01 35.3452 148.913 36.1222 149.969 36.6288C150.467 36.8402 150.976 37.0258 151.494 37.185C151.846 37.2935 152.009 37.4699 151.962 37.8633C151.914 38.2567 152.023 38.6026 151.758 38.935C151.71 39.0082 151.643 39.0674 151.564 39.1067C151.486 39.146 151.398 39.164 151.311 39.1589C150.05 39.1249 148.796 39.0843 147.535 39.0775C145.264 39.0775 142.993 39.0775 140.715 39.0775C140.207 39.0775 140.153 39.0232 140.16 38.5009C140.16 37.5038 140.16 37.5106 141.122 37.2596C141.685 37.1104 142.241 36.9272 142.797 36.7509C142.879 36.7176 142.959 36.6767 143.034 36.6288C143.657 36.31 143.712 36.0861 143.325 35.5299C142.051 33.8138 140.756 32.1383 139.468 30.3951C139.333 30.2255 139.183 30.0559 139.014 29.8457Z" fill="white"/>
<path d="M96.3818 39.2878C94.904 39.2538 93.4194 39.1996 91.9349 39.186C88.4505 39.186 84.9594 39.125 81.4751 39.1453C79.211 39.1453 76.9536 39.2606 74.6962 39.3284L70.3781 39.4438C69.9578 39.4438 69.9239 39.4031 69.9239 38.9893C69.9173 38.8944 69.9173 38.7993 69.9239 38.7044C69.9104 38.4906 69.9796 38.2798 70.1171 38.1156C70.2547 37.9515 70.4501 37.8466 70.6628 37.8226C72.0124 37.432 73.3939 37.1619 74.7911 37.0154C75.0569 36.9837 75.3198 36.9315 75.5775 36.8594C76.0317 36.7441 76.2554 36.4863 76.2554 35.9369C76.2549 34.9579 76.3093 33.9796 76.4181 33.0066C76.7435 31.148 76.5198 29.2894 76.5672 27.4377C76.6147 25.5859 76.6079 23.7002 76.6079 21.8348C76.6079 16.2048 76.5898 10.5703 76.5536 4.9313C76.5611 4.66599 76.5198 4.40157 76.4316 4.15124C76.39 4.06442 76.3304 3.98746 76.2568 3.92547C76.1831 3.86349 76.0972 3.8179 76.0046 3.79174C74.52 3.42545 73.0219 3.11343 71.5237 2.74714C71.3982 2.72881 71.2738 2.7039 71.1509 2.67252C71.0335 2.65606 70.9262 2.59742 70.8488 2.50755C70.7715 2.41768 70.7295 2.30273 70.7306 2.18414C70.7476 1.94024 70.7476 1.69546 70.7306 1.45156C70.6899 1.14632 70.8459 1.03101 71.0967 1.01066C71.3518 0.997097 71.6075 0.997097 71.8627 1.01066L77.3942 1.16667C78.4314 1.16667 79.4686 1.16667 80.4989 1.2345C82.1665 1.37695 83.8138 1.05814 85.4746 1.07849C86.3287 1.07849 87.1829 1.07849 88.037 1.12597C88.5387 1.12597 88.6539 1.26842 88.6268 1.80429C88.6187 2.03351 88.5846 2.26108 88.5251 2.4826C88.3963 3.05916 88.3489 3.09308 87.7591 3.16091C86.4033 3.22196 85.0475 3.283 83.7324 3.35762C83.3528 3.35762 82.9732 3.45258 82.5936 3.49328C82.214 3.53398 82.1462 3.83244 82.0513 4.10376C81.9957 4.28838 81.9705 4.48082 81.9767 4.67354C81.9767 8.99664 81.9767 13.3175 81.9767 17.6361C81.9767 20.5596 81.9767 23.4831 82.0174 26.4134C82.0174 28.0821 82.0174 29.7575 82.0174 31.4261C82.0174 33.0948 81.9767 34.6074 81.9632 36.1743C81.9632 37.1172 81.9632 37.1307 82.8783 37.1375C84.7967 37.1375 86.7151 37.1918 88.6403 37.1714C90.2605 37.1714 91.8738 37.0493 93.494 36.9815C94.615 36.9103 95.6871 36.4958 96.5648 35.7944C98.2225 34.551 99.5513 32.921 100.436 31.0463C100.734 30.4494 100.951 29.8117 101.215 29.1945C101.26 29.0886 101.332 28.9971 101.425 28.9299C101.631 28.8178 101.858 28.7508 102.092 28.7332C102.326 28.7157 102.561 28.7481 102.781 28.8282C103.018 28.8757 103.032 29.1606 102.984 29.398C102.781 30.4222 102.557 31.4329 102.395 32.4707C102.062 34.5057 101.771 36.5406 101.466 38.5755C101.31 39.593 101.344 39.5523 100.442 39.5048C99.1204 39.437 97.7918 39.4166 96.4699 39.3759L96.3818 39.2878Z" fill="white"/>
<path d="M161.337 23.6322H153.595C153.392 23.6322 153.27 23.6865 153.236 23.89C153.202 24.0935 153.127 24.453 153.114 24.7378C153.114 25.4162 153.053 26.1487 153.08 26.8474C153.118 27.27 153.186 27.6894 153.283 28.1023C153.627 30.0744 154.464 31.9273 155.717 33.4881C156.042 33.8714 156.413 34.2132 156.822 34.5055C158.364 35.6509 160.252 36.232 162.171 36.1518C164.089 36.0715 165.922 35.3347 167.363 34.0646C167.878 33.6509 168.36 33.1964 168.848 32.7555C168.959 32.6663 169.087 32.6015 169.225 32.5653C169.363 32.5291 169.507 32.5222 169.648 32.5452C169.685 32.5555 169.719 32.5753 169.746 32.6027C169.773 32.63 169.793 32.664 169.803 32.7012C169.885 33.2574 169.953 33.8136 170 34.3766C170.009 34.5131 169.968 34.6481 169.885 34.7565C169.063 35.8209 168.082 36.7521 166.977 37.5172C165.685 38.4671 164.241 39.1897 162.706 39.6539C162.013 39.8241 161.304 39.9197 160.591 39.9388C159.36 40.0818 158.114 40.0199 156.903 39.7557C156.075 39.5251 155.268 39.2256 154.49 38.8603C152.996 38.1348 151.73 37.0134 150.829 35.618C149.748 34.0645 149.04 32.2814 148.762 30.4085C148.287 27.3678 148.689 24.2544 149.921 21.4345C150.39 20.1955 151.039 19.0322 151.846 17.9819C152.279 17.4686 152.76 16.9984 153.283 16.5778C154.939 15.1759 156.982 14.3101 159.14 14.0951C160.608 13.948 162.091 14.0862 163.506 14.5021C164.508 14.8122 165.432 15.3325 166.217 16.0283C166.814 16.5588 167.374 17.13 167.892 17.7377C168.491 18.5606 168.949 19.4776 169.248 20.4509C169.544 21.2418 169.684 22.0825 169.661 22.9268C169.661 23.4423 169.553 23.544 169.037 23.544H161.337V23.6322ZM153.683 21.7533H154.124C156.578 21.6312 159.025 21.5159 161.472 21.3802C162.326 21.3327 163.174 21.2513 164.028 21.1835C164.163 21.1806 164.296 21.1444 164.414 21.0782C164.532 21.0119 164.633 20.9177 164.706 20.8036C164.812 20.6321 164.879 20.4389 164.901 20.2383C164.923 20.0376 164.901 19.8345 164.835 19.6437C164.712 18.9022 164.382 18.2106 163.883 17.6488C163.384 17.0871 162.736 16.6781 162.015 16.4692C161.225 16.2404 160.398 16.1689 159.581 16.259C158.149 16.3317 156.795 16.9307 155.778 17.9412C155.029 18.6734 154.436 19.5503 154.036 20.5188C153.897 20.9233 153.782 21.3355 153.69 21.7533H153.683Z" fill="white"/>
<path d="M54.2309 23.5442C51.6482 23.5849 49.0654 23.6323 46.4827 23.6663C46.2251 23.6663 46.0963 23.7409 46.0759 24.0122C46.0421 24.3988 45.9878 24.7855 45.9607 25.1789C45.8111 27.7775 46.4771 30.3578 47.8656 32.5589C48.6904 33.9111 49.9466 34.9458 51.4312 35.496C52.4642 35.9074 53.5604 36.1369 54.6715 36.1743C56.3041 36.2508 57.9165 35.7884 59.2608 34.8584C60.0404 34.3225 60.7589 33.7053 61.5046 33.1219C61.7148 32.9591 61.9249 32.7895 62.1418 32.6403C62.3587 32.4911 62.6367 32.5386 62.6909 32.8506C62.779 33.4 62.8333 33.9495 62.8739 34.4989C62.8568 34.6257 62.7971 34.743 62.7045 34.8313C61.2522 36.5879 59.4368 38.0088 57.3831 38.9961C56.3816 39.5051 55.2898 39.8117 54.1699 39.8982C52.4759 40.1149 50.7563 40.0137 49.0993 39.5998C47.5051 39.1354 46.0606 38.2607 44.91 37.0629C43.801 35.984 42.9364 34.6793 42.3747 33.2372C41.8719 31.8798 41.5549 30.4606 41.4324 29.0181C41.2839 26.6799 41.6376 24.3369 42.4696 22.1468C42.9523 20.6296 43.7234 19.22 44.7405 17.9956C46.0471 16.4831 47.7076 15.3179 49.5738 14.604C50.9679 14.1185 52.4478 13.9291 53.9191 14.0478C54.9339 14.0677 55.9353 14.2843 56.8679 14.6854C57.9904 15.1586 59.0088 15.8484 59.8649 16.7155C60.721 17.5826 61.3979 18.6099 61.8571 19.7388C62.3133 20.7487 62.5446 21.8458 62.535 22.954C62.535 23.3814 62.413 23.5102 61.9791 23.5102L54.2309 23.5442ZM46.6386 21.7738H46.9572C48.9909 21.6652 51.0245 21.5771 53.0582 21.455C54.4139 21.3736 55.7697 21.2515 57.0712 21.1429C57.2601 21.1307 57.4366 21.0451 57.5633 20.9045C57.6899 20.7638 57.7566 20.5792 57.7491 20.39C57.7446 19.8005 57.6103 19.2192 57.356 18.6875C57.0295 17.8487 56.3972 17.1651 55.5867 16.7746C54.5368 16.2576 53.351 16.0843 52.1972 16.2795C51.3626 16.3974 50.5563 16.6663 49.8179 17.0731C48.733 17.7296 47.8454 18.667 47.2487 19.7863C46.8694 20.3814 46.6585 21.0683 46.6386 21.7738Z" fill="white"/>
</g>
<defs>
<clipPath id="clip0_6_89">
<rect width="170" height="40" fill="white"/>
</clipPath>
</defs>
</svg>
